<svg width="130" height="39" viewBox="0 0 130 39" fill="none" xmlns="http://www.w3.org/2000/svg">
<path d="M22.4808 0.399902C19.8865 0.399902 15.1357 0.399902 15.1357 0.399902V19.5375C15.1357 15.4607 18.4377 12.1924 22.4808 12.1924C26.5577 12.1924 29.8259 15.4944 29.8259 19.5375C29.8259 23.6144 26.524 26.8826 22.4808 26.8826C18.404 26.8826 15.1357 23.5807 15.1357 19.5375V38.6078C15.1357 38.6078 19.8865 38.6751 22.4808 38.6751C33.0604 38.6751 41.6184 30.1171 41.6184 19.5375C41.6184 8.95792 33.0604 0.399902 22.4808 0.399902Z" fill="#3CB4E5"/>
<path d="M7.75718 26.8825C11.8138 26.8825 15.1023 23.594 15.1023 19.5375C15.1023 15.4809 11.8138 12.1924 7.75718 12.1924C3.70061 12.1924 0.412109 15.4809 0.412109 19.5375C0.412109 23.594 3.70061 26.8825 7.75718 26.8825Z" fill="#3CB4E5"/>
<path d="M58.2632 8.58685L57.2524 9.39548C56.3764 8.11515 55.0961 7.34021 53.4788 7.34021C50.8507 7.34021 48.8292 9.36179 48.8292 12.0909C48.8292 14.8201 50.8507 16.8416 53.4788 16.8416C55.0961 16.8416 56.4101 16.0667 57.2524 14.7864L58.2632 15.595C57.3198 17.0775 55.5341 18.0883 53.4451 18.0883C50.0758 18.0883 47.4141 15.4939 47.4141 12.0909C47.4141 8.68793 50.1095 6.09357 53.4451 6.09357C55.5678 6.05987 57.3198 7.10436 58.2632 8.58685Z" fill="#18355E"/>
<path d="M71.9762 12.0914C71.9762 15.4944 69.247 18.0888 65.9451 18.0888C62.5758 18.0888 59.9141 15.4607 59.9141 12.0914C59.9141 8.68843 62.6095 6.09407 65.9451 6.09407C69.2807 6.06038 71.9762 8.68843 71.9762 12.0914ZM61.3292 12.0577C61.3292 14.7869 63.2834 16.8084 65.9451 16.8084C68.5732 16.8084 70.561 14.7532 70.561 12.0577C70.561 9.36229 68.5732 7.34071 65.9451 7.34071C63.2834 7.34071 61.3292 9.36229 61.3292 12.0577Z" fill="#18355E"/>
<path d="M83.7016 6.2627V18.0889H83.1962L75.7838 9.1603V17.8868H74.4023V6.06055H74.9077L82.3202 15.0229V6.2627H83.7016Z" fill="#18355E"/>
<path d="M96.2016 6.2627V18.0889H95.6962L88.2838 9.1603V17.8868H86.9023V6.06055H87.4077L94.8202 15.0229V6.2627H96.2016Z" fill="#18355E"/>
<path d="M106.848 7.50934H100.784V11.0808H105.433V12.3274H100.784V16.7075H107.084V17.9542H99.4023V6.2627H106.848V7.50934Z" fill="#18355E"/>
<path d="M119.213 8.58752L118.203 9.39615C117.327 8.11582 116.046 7.34088 114.429 7.34088C111.801 7.34088 109.779 9.36246 109.779 12.0916C109.779 14.8207 111.801 16.8423 114.429 16.8423C116.046 16.8423 117.36 16.0674 118.203 14.787L119.213 15.5957C118.27 17.0782 116.484 18.0889 114.395 18.0889C111.026 18.0889 108.364 15.4946 108.364 12.0916C108.364 8.6886 111.026 6.06055 114.395 6.06055C116.518 6.06055 118.236 7.10503 119.213 8.58752Z" fill="#18355E"/>
<path d="M129.996 7.50934H125.885V17.9205H124.504V7.50934H120.427V6.2627H129.996V7.50934Z" fill="#18355E"/>
<path d="M57.4546 22.2335H53.344V32.6446H51.9626V22.2335H47.8857V20.9868H57.4546V22.2335Z" fill="#18355E"/>
<path d="M68.6743 32.6446H67.2929V27.0516H60.7564V32.6446H59.375V21.0205H60.7564V25.8049H67.2929V21.0205H68.6743V32.6446Z" fill="#18355E"/>
<path d="M79.3212 22.233H73.2564V25.8044H77.9061V27.0511H73.2564V31.4312H79.557V32.6778H71.875V21.0537H79.3212V22.233Z" fill="#18355E"/>
<path d="M95.8984 26.8157C95.8984 30.1513 93.5062 32.6446 89.5641 32.6446H86.0938V21.0205H89.5641C93.5399 21.0205 95.8984 23.4464 95.8984 26.8157ZM87.5089 22.2335V31.3979H89.5641C92.6976 31.3979 94.4833 29.4101 94.4833 26.782C94.4833 24.1203 92.6976 22.2335 89.5641 22.2335H87.5089Z" fill="#18355E"/>
<path d="M109.679 26.8152C109.679 30.2182 106.95 32.8126 103.648 32.8126C100.279 32.8126 97.6172 30.1845 97.6172 26.8152C97.6172 23.4122 100.313 20.8179 103.648 20.8179C106.95 20.8179 109.679 23.4459 109.679 26.8152ZM99.0323 26.8152C99.0323 29.5444 100.986 31.5659 103.648 31.5659C106.276 31.5659 108.264 29.5107 108.264 26.8152C108.264 24.1198 106.276 22.0982 103.648 22.0982C100.986 22.0982 99.0323 24.1198 99.0323 26.8152Z" fill="#18355E"/>
<path d="M120.023 22.2335H115.912V32.6446H114.531V22.2335H110.454V20.9868H120.023V22.2335Z" fill="#18355E"/>
<path d="M128.952 22.8062L127.941 23.5475C127.334 22.6041 126.323 22.0987 125.279 22.0987C124.201 22.0987 123.224 22.6378 123.224 23.7833C123.224 24.8278 124.032 25.2321 125.077 25.7375L126.357 26.344C128.042 27.1526 129.086 28.0287 129.086 29.5785C129.086 31.5327 127.469 32.8131 125.346 32.8131C123.493 32.8131 121.977 31.836 121.067 30.3198L122.078 29.5785C122.786 30.6567 123.83 31.5664 125.313 31.5664C126.694 31.5664 127.671 30.8252 127.671 29.6122C127.671 28.5341 126.863 28.1297 125.717 27.557L124.403 26.9505C123.055 26.3103 121.775 25.468 121.775 23.817C121.775 21.9639 123.392 20.7847 125.279 20.7847C126.896 20.8184 128.244 21.6607 128.952 22.8062Z" fill="#18355E"/>
</svg>
