<svg width="108" height="40" viewBox="0 0 108 40" fill="none" xmlns="http://www.w3.org/2000/svg">
<path d="M21.7787 2.22266C19.3724 2.22266 15 2.22266 15 2.22266V20.0004C15 16.2204 18.0519 13.1787 21.7787 13.1787C25.5349 13.1787 28.5574 16.25 28.5574 20.0004C28.5574 23.7509 25.5055 26.8221 21.7787 26.8221C18.0225 26.8221 15 23.7509 15 20.0004V37.7192C15 37.7192 19.3724 37.7782 21.7787 37.7782C31.5506 37.7782 39.4444 29.8048 39.4444 20.0004C39.4444 10.1665 31.5506 2.22266 21.7787 2.22266Z" fill="white"/>
<path d="M8.33341 26.6654C12.0153 26.6654 15.0001 23.6806 15.0001 19.9987C15.0001 16.3168 12.0153 13.332 8.33341 13.332C4.65152 13.332 1.66675 16.3168 1.66675 19.9987C1.66675 23.6806 4.65152 26.6654 8.33341 26.6654Z" fill="#38B2E6"/>
<path d="M21.7787 2.22266C19.3724 2.22266 15 2.22266 15 2.22266V20.0004C15 16.2204 18.0519 13.1787 21.7787 13.1787C25.5349 13.1787 28.5574 16.25 28.5574 20.0004C28.5574 23.7509 25.5055 26.8221 21.7787 26.8221C18.0225 26.8221 15 23.7509 15 20.0004V37.7192C15 37.7192 19.3724 37.7782 21.7787 37.7782C31.5506 37.7782 39.4444 29.8048 39.4444 20.0004C39.4444 10.1665 31.5506 2.22266 21.7787 2.22266Z" fill="#38B2E6"/>
<path d="M66.1668 13.4713L64.2792 14.9783C62.6866 12.6439 60.2681 11.1959 57.2892 11.1959C52.4522 11.1959 48.736 14.9488 48.736 19.9724C48.736 24.9959 52.4522 28.7488 57.2892 28.7488C60.2976 28.7488 62.6866 27.3008 64.2792 24.9664L66.1668 26.4734C64.4562 29.2216 61.1529 31.1128 57.2597 31.1128C51.0365 31.1128 46.1111 26.2961 46.1111 20.0019C46.1111 13.7077 51.066 8.89097 57.2597 8.89097C61.1529 8.86142 64.3677 10.7526 66.1668 13.4713Z" fill="white"/>
<path d="M85.2493 11.4902H77.6694V30.7275H75.1329V11.4902H67.5825V9.21484H85.2493V11.4902Z" fill="white"/>
<path d="M107.222 19.9416C107.222 26.1177 102.828 30.7275 95.5425 30.7275H89.1719V9.21484H95.5425C102.828 9.21484 107.222 13.677 107.222 19.9416ZM91.7083 11.4902V28.4521H95.513C101.264 28.4521 104.597 24.7583 104.597 19.9416C104.597 15.0067 101.264 11.4902 95.513 11.4902H91.7083Z" fill="white"/>
</svg>
